<svg width="20" height="20" viewBox="0 0 20 20" fill="none" xmlns="http://www.w3.org/2000/svg">
    <path d="M9.94187 2.57318C5.7895 2.57318 2.41119 5.95149 2.41119 10.1039C2.41119 14.2562 5.7895 17.6345 9.94187 17.6345C14.0942 17.6345 17.4725 14.2562 17.4725 10.1039C17.4725 5.95149 14.0942 2.57318 9.94187 2.57318ZM13.8611 7.57999L8.9951 13.3728C8.94173 13.4364 8.87531 13.4878 8.80035 13.5234C8.72539 13.5591 8.64364 13.5782 8.56064 13.5796H8.55087C8.46967 13.5795 8.38939 13.5624 8.31523 13.5294C8.24107 13.4963 8.17469 13.448 8.12039 13.3877L6.03497 11.0705C5.98201 11.0144 5.94081 10.9482 5.91379 10.8758C5.88678 10.8035 5.87449 10.7265 5.87766 10.6494C5.88083 10.5722 5.89938 10.4965 5.93223 10.4267C5.96508 10.3568 6.01157 10.2942 6.06896 10.2425C6.12634 10.1909 6.19348 10.1513 6.26641 10.1259C6.33934 10.1006 6.41659 10.0901 6.49364 10.0951C6.57068 10.1 6.64596 10.1203 6.71505 10.1548C6.78413 10.1892 6.84563 10.2372 6.89593 10.2957L8.53566 12.1176L12.9741 6.83489C13.0736 6.71979 13.2145 6.64849 13.3662 6.6364C13.5179 6.62431 13.6682 6.6724 13.7848 6.77029C13.9013 6.86817 13.9746 7.00798 13.9889 7.1595C14.0032 7.31101 13.9573 7.46206 13.8611 7.57999Z" fill="#16A34A"/>
</svg>
