<svg width="13" height="24" viewBox="0 0 13 24" fill="none" xmlns="http://www.w3.org/2000/svg">
    <path opacity="0.54" fill-rule="evenodd" clip-rule="evenodd" d="M6.37317 8C7.47317 8 8.37317 7.1 8.37317 6C8.37317 4.9 7.47317 4 6.37317 4C5.27317 4 4.37317 4.9 4.37317 6C4.37317 7.1 5.27317 8 6.37317 8ZM6.37317 10C5.27317 10 4.37317 10.9 4.37317 12C4.37317 13.1 5.27317 14 6.37317 14C7.47317 14 8.37317 13.1 8.37317 12C8.37317 10.9 7.47317 10 6.37317 10ZM6.37317 16C5.27317 16 4.37317 16.9 4.37317 18C4.37317 19.1 5.27317 20 6.37317 20C7.47317 20 8.37317 19.1 8.37317 18C8.37317 16.9 7.47317 16 6.37317 16Z" fill="#9B9B9B"/>
</svg>
