<svg width="19" height="20" viewBox="0 0 19 20" fill="none" xmlns="http://www.w3.org/2000/svg">
    <g clip-path="url(#clip0_20518_5021)">
        <path d="M18.8057 18.3004C18.8057 18.9451 18.2825 19.4684 17.6378 19.4684H1.28699C0.642305 19.4684 0.11908 18.9451 0.11908 18.3004V1.94965C0.11908 1.30496 0.642305 0.781738 1.28699 0.781738H17.6378C18.2825 0.781738 18.8057 1.30496 18.8057 1.94965V18.3004Z" fill="#3B5998"/>
        <path d="M12.9661 19.4685V12.461H15.3019L15.8859 9.54123H12.9661V8.37331C12.9661 7.2054 13.5512 6.62144 14.718 6.62144H15.8859V3.70166C15.3019 3.70166 14.5778 3.70166 13.5501 3.70166C11.404 3.70166 10.0463 5.38404 10.0463 7.78936V9.54123H7.71051V12.461H10.0463V19.4685H12.9661Z" fill="white"/>
    </g>
    <defs>
        <clipPath id="clip0_20518_5021">
            <rect width="18.6866" height="18.6866" fill="white" transform="translate(0.11908 0.781738)"/>
        </clipPath>
    </defs>
</svg>
