<svg width="20" height="20" viewBox="0 0 20 20" fill="none" xmlns="http://www.w3.org/2000/svg">
    <path d="M7.22632 1.28287C4.97882 2.07254 3.03503 3.77335 1.94165 5.89937C1.57719 6.62829 1.27347 7.41795 1.15199 8.26836C0.726782 10.2729 1.0305 12.4597 1.94165 14.282C2.54908 15.4968 3.39949 16.5295 4.49287 17.3799C5.46477 18.1695 6.61889 18.777 7.8945 19.0807C9.47383 19.5059 11.1139 19.5059 12.6325 19.1414C14.0296 18.8377 15.3659 18.1695 16.4593 17.1369C17.6134 16.1043 18.4031 14.7679 18.8283 13.2493C19.3143 11.67 19.375 9.96917 19.0713 8.3291C16.1556 8.3291 13.2399 8.3291 10.3242 8.3291C10.3242 9.54397 10.3242 10.7588 10.3242 11.9737C12.0251 11.9737 13.7259 11.9737 15.3659 11.9737C15.1837 13.1278 14.4548 14.2212 13.4829 14.8286C12.8755 15.2538 12.1465 15.4968 11.4176 15.6183C10.6887 15.7398 9.89903 15.7398 9.17011 15.6183C8.44119 15.4968 7.71227 15.1324 7.10484 14.7072C6.13294 14.039 5.34328 13.0063 4.97882 11.8522C4.55362 10.6981 4.55362 9.42248 4.97882 8.20762C5.28254 7.41795 5.70774 6.62829 6.31517 6.02085C7.04409 5.23119 8.01599 4.6845 9.10937 4.50227C10.0205 4.32004 10.9317 4.32004 11.8428 4.62376C12.5717 4.86673 13.3007 5.29193 13.8474 5.77788C14.394 5.23119 15.0015 4.62376 15.5482 4.07707C15.8519 3.77335 16.1556 3.46963 16.4593 3.16592C15.6089 2.37625 14.5763 1.70807 13.4829 1.28287C11.4784 0.614694 9.23085 0.614694 7.22632 1.28287Z" fill="white"/>
    <path d="M7.22638 1.28309C9.23092 0.614917 11.4784 0.614917 13.483 1.34384C14.5763 1.76904 15.609 2.37647 16.4594 3.22688C16.1557 3.5306 15.8519 3.83432 15.5482 4.13803C15.0015 4.68472 14.3941 5.29216 13.8474 5.83885C13.3007 5.29216 12.5718 4.86695 11.8429 4.68472C10.9925 4.44175 10.0206 4.38101 9.10943 4.56324C8.07679 4.80621 7.1049 5.3529 6.31523 6.08182C5.7078 6.68925 5.22185 7.47892 4.97888 8.26858C3.94624 7.47892 2.97435 6.68925 1.94171 5.89959C3.03509 3.77357 4.97888 2.07276 7.22638 1.28309Z" fill="#FF4D00"/>
    <path d="M1.15199 8.26841C1.33422 7.47874 1.57719 6.68908 1.94165 5.89941C2.97429 6.68908 3.94618 7.47874 4.97882 8.26841C4.55362 9.42253 4.55362 10.6981 4.97882 11.913C3.94618 12.7027 2.97429 13.4923 1.94165 14.282C1.0305 12.399 0.726782 10.2729 1.15199 8.26841Z" fill="#FBBC05"/>
    <path d="M10.2635 8.32886C13.1792 8.32886 16.0949 8.32886 19.0106 8.32886C19.3143 9.96893 19.2536 11.6697 18.7676 13.2491C18.3424 14.7069 17.5528 16.0433 16.3986 17.1366C15.4267 16.347 14.4548 15.6181 13.4222 14.8284C14.3941 14.1602 15.0623 13.1276 15.3052 11.9735C13.6044 11.9735 11.9036 11.9735 10.2635 11.9735C10.2635 10.7586 10.2635 9.54372 10.2635 8.32886Z" fill="#4285F4"/>
    <path d="M1.94171 14.2821C2.97435 13.4924 3.94624 12.7027 4.97888 11.9131C5.34334 13.0672 6.133 14.0998 7.1049 14.768C7.71233 15.1932 8.44125 15.4969 9.17017 15.6792C9.89909 15.8007 10.628 15.8007 11.4177 15.6792C12.1466 15.5577 12.8755 15.254 13.483 14.8895C14.4548 15.6792 15.4267 16.4081 16.4594 17.1978C15.366 18.1697 14.0904 18.8378 12.6325 19.2023C11.0532 19.5668 9.41315 19.5668 7.89456 19.1415C6.67969 18.8378 5.52557 18.2304 4.49293 17.4407C3.4603 16.5296 2.54915 15.4362 1.94171 14.2821Z" fill="#34A853"/>
</svg>
