<svg width="30" height="30" viewBox="0 0 30 30" fill="none" xmlns="http://www.w3.org/2000/svg">
    <g clip-path="url(#clip0_20518_150)">
        <path d="M29.9525 9.6562L28.4875 4.53248C27.725 1.86374 25.2525 0 22.4775 0H21.25V4.99998C21.2425 6.63497 18.7563 6.63372 18.75 4.99998V0H11.25V4.99998C11.2425 6.63497 8.7575 6.63372 8.75 4.99998V0H7.52125C4.74625 0 2.275 1.86374 1.51125 4.53248L0.0487524 9.6562C-0.152498 10.9887 0.441252 12.3287 1.25 13.2724V24.9999C1.25 27.7574 3.4925 29.9999 6.25 29.9999H13.75C16.5075 29.9999 18.75 27.7574 18.75 24.9999V14.3049C19.2225 14.0287 19.6425 13.6824 20 13.2724C20.9175 14.3224 22.2488 14.9999 23.75 14.9999H25C25.4338 14.9999 25.8475 14.9274 26.25 14.8224V28.7499C26.2575 30.3849 28.7437 30.3836 28.75 28.7499V13.2724C29.56 12.3299 30.1525 10.9899 29.9525 9.6562ZM16.25 21.2499H3.75V14.8224C4.1525 14.9274 4.56625 14.9999 5 14.9999H6.25C7.75 14.9999 9.0825 14.3224 10 13.2724C10.9175 14.3224 12.25 14.9999 13.75 14.9999H16.25V21.2499Z" fill="#FFFFFF"/>
    </g>
    <defs>
        <clipPath id="clip0_20518_150">
            <rect width="30" height="29.9999" fill="white"/>
        </clipPath>
    </defs>
</svg>
