<svg width="30" height="31" viewBox="0 0 30 31" fill="none" xmlns="http://www.w3.org/2000/svg">
    <path d="M11.12 11.5C11.4335 10.6089 12.0522 9.85747 12.8666 9.37883C13.681 8.9002 14.6385 8.72524 15.5696 8.88494C16.5006 9.04464 17.3451 9.52869 17.9535 10.2514C18.5618 10.974 18.8948 11.8887 18.8934 12.8333C18.8934 15.5 14.8934 16.8333 14.8934 16.8333M15 22.1667H15.0134M28.3334 15.5C28.3334 22.8638 22.3638 28.8333 15 28.8333C7.63622 28.8333 1.66669 22.8638 1.66669 15.5C1.66669 8.13619 7.63622 2.16666 15 2.16666C22.3638 2.16666 28.3334 8.13619 28.3334 15.5Z" stroke="#1E1E1E" stroke-width="3" stroke-linecap="round" stroke-linejoin="round"/>
</svg>
