<svg width="310" height="251" viewBox="0 0 310 251" fill="none" xmlns="http://www.w3.org/2000/svg">
    <path d="M283.184 0H27.2105C12.6829 0 0.905884 9.70663 0.905884 21.6804V229.32C0.905884 241.293 12.6829 251 27.2105 251H283.184C297.711 251 309.488 241.293 309.488 229.32V21.6804C309.488 9.70663 297.711 0 283.184 0Z" fill="#F3F1F1FF"/>
    <path d="M87.3508 183.788V144.623H97.0993V161.327L111.636 144.623H123.209L108.33 161.27L124.349 183.788H112.606L101.603 168.282L97.0993 173.127V183.788H87.3508ZM157.645 183.788L155.365 178.087H139.858L137.578 183.788H126.632L142.139 144.623H153.084L168.591 183.788H157.645ZM142.88 170.448H152.343L147.611 158.419L142.88 170.448ZM182.093 183.788V170.277L166.928 144.623H178.159L186.995 161.156L196.231 144.623H207.062L191.898 170.277V183.788H182.093ZM210.778 183.788V144.623H225.087C238.541 144.623 248.004 152.718 248.004 164.177C248.004 175.636 238.541 183.788 225.087 183.788H210.778ZM220.526 174.952H226.569C233.239 174.952 238.028 170.448 238.028 164.177C238.028 157.906 233.239 153.46 226.569 153.46H220.526V174.952Z" fill="#FAFAFA"/>
    <path d="M129.454 203.21C128.941 207.257 128.314 211.077 128.257 215.124C128.2 219.913 128.2 224.702 128.2 229.547C128.2 230.574 128.143 231.657 127.858 232.683C127.516 233.994 126.547 234.849 125.349 234.906C124.266 234.963 123.183 234.279 122.67 233.139C122.328 232.455 122.214 231.771 122.157 231.03C121.701 225.614 121.701 220.255 122.157 214.839C122.613 209.309 123.069 203.837 124.266 198.421C124.665 196.654 125.121 194.943 125.805 193.29C126.148 192.435 126.547 191.637 127.06 190.896C128.542 189.014 130.822 188.843 132.589 190.554C133.673 191.58 134.357 192.891 134.87 194.259C136.067 197.623 136.409 201.1 136.865 204.578C137.036 205.661 137.15 206.801 137.264 207.884C137.321 208.283 137.264 208.682 137.834 208.91C138.29 208.397 138.404 207.713 138.575 207.086C139.83 202.354 141.141 197.623 142.965 193.005C143.25 192.378 143.535 191.694 143.934 191.067C145.245 189.356 147.184 189.242 148.723 190.725C149.521 191.523 149.92 192.492 150.091 193.518C150.604 196.311 150.718 199.105 151.06 201.841C152.143 210.678 152.257 219.514 152.2 228.407C152.143 229.091 152.2 229.718 152.086 230.403C151.858 231.771 151.117 232.569 149.92 232.626C148.666 232.74 147.64 232.056 147.412 230.631C147.127 229.091 146.956 227.552 146.842 225.956C146.386 220.426 145.986 214.839 145.587 209.309L145.302 204.806C145.245 204.35 145.245 203.78 144.846 203.381C144.333 203.894 144.276 204.407 144.162 204.977C143.022 209.366 142.11 213.756 140.685 218.089C140.4 218.944 140.172 219.799 139.659 220.597C138.233 222.991 135.269 223.048 133.844 220.597C132.589 218.374 132.019 215.865 131.563 213.414C130.936 209.994 130.765 206.516 130.309 203.096C130.138 201.67 129.625 201.784 129.454 203.21ZM161.369 218.431C161.597 218.317 161.825 218.26 161.939 218.146C164.96 214.953 166.271 211.134 167.81 207.371C168.038 206.687 167.411 206.345 166.727 206.744C166.043 207.143 165.587 207.77 165.131 208.397C163.25 211.077 162.167 214.041 161.254 217.006C161.14 217.462 160.969 217.975 161.369 218.431ZM168.153 216.607C167.525 217.576 166.955 218.488 166.328 219.343C165.245 220.939 163.877 222.364 162.11 223.277C159.145 224.93 156.523 224.189 155.44 221.395C154.299 218.545 154.642 215.523 155.725 212.388C156.58 209.651 158.062 207.143 159.829 204.749C161.254 202.924 162.965 201.499 165.188 200.758C166.898 200.188 168.438 200.245 169.806 201.157C170.376 201.499 170.946 201.727 171.687 201.727C173.34 201.67 174.195 202.354 174.537 203.894C174.708 204.749 174.765 205.661 174.708 206.63C174.594 208.283 174.651 209.937 174.823 211.59C175.108 214.668 174.823 217.804 174.937 220.882C174.937 221.167 174.88 221.452 174.88 221.737C174.765 222.877 174.252 223.733 173.169 224.189C172.029 224.645 171.06 224.417 170.319 223.619C169.806 223.105 169.578 222.421 169.464 221.737C169.236 220.597 169.122 219.514 168.894 218.374C168.78 217.804 168.894 217.12 168.153 216.607ZM184.263 200.587C184.149 207.143 183.864 213.927 184.206 220.483C184.263 220.654 184.263 220.825 184.263 220.996C184.206 222.82 183.522 223.904 182.097 224.246C180.843 224.531 179.474 223.733 178.847 222.25C178.334 220.882 178.163 219.457 177.992 218.032C176.966 210.165 176.852 202.297 177.422 194.316C177.707 190.725 178.049 187.133 178.79 183.599C178.961 182.915 179.132 182.173 179.36 181.546C179.988 180.178 181.185 179.323 182.382 179.494C183.75 179.665 184.548 180.52 184.89 181.774C185.232 182.857 185.232 183.941 185.118 185.081C184.719 190.212 184.377 195.399 184.263 200.587ZM194.897 200.587C194.783 207.143 194.498 213.927 194.84 220.483C194.897 220.654 194.897 220.825 194.897 220.996C194.84 222.82 194.156 223.904 192.73 224.246C191.476 224.531 190.108 223.733 189.481 222.25C188.968 220.882 188.797 219.457 188.626 218.032C187.6 210.165 187.486 202.297 188.056 194.316C188.341 190.725 188.683 187.133 189.424 183.599C189.595 182.915 189.766 182.173 189.994 181.546C190.621 180.178 191.818 179.323 193.015 179.494C194.384 179.665 195.182 180.52 195.524 181.774C195.866 182.857 195.866 183.941 195.752 185.081C195.353 190.212 195.011 195.399 194.897 200.587Z" fill="#FAFAFA"/>
    <path d="M163.587 105.275C154.687 105.275 145.785 105.275 136.879 105.275C130.633 105.275 126.97 102.347 125.497 97.7902C122.702 89.1164 120.361 80.3262 117.839 71.6274C117.375 70.0224 117.021 68.4007 116.537 66.804C114.428 59.8184 114.428 59.7269 105.67 59.203C101.352 58.9452 100.211 57.0241 100.272 53.839C100.333 50.6539 100.211 47.4937 105.408 47.3441C111.22 47.1777 117.112 46.895 122.823 47.527C124.841 47.7515 127.394 50.3296 127.999 52.209C131.622 63.3361 134.75 74.5713 138.029 85.7733C140.228 93.2579 140.228 93.2579 149.632 93.2579C162.003 93.2579 174.373 93.1913 186.743 93.2579C193.332 93.3161 194.815 94.813 194.745 99.9857C194.745 103.778 192.565 105.516 188.146 105.533C179.963 105.533 171.78 105.533 163.587 105.533V105.275Z" fill="#FAFAFA"/>
    <path d="M147.594 24.1833C160.499 24.1833 173.404 24.1833 186.31 24.1833C193.12 24.1833 194.815 25.489 194.735 30.4704C194.654 35.1774 193.13 36.4913 187.066 36.5163C171.8 36.5745 156.534 36.5163 141.268 36.5163C129.997 36.5163 118.727 36.4331 107.456 36.5163C102.492 36.5163 100.07 35.0693 100.252 30.6949C100.474 25.3643 101.13 24.3829 107.244 24.3414C120.694 24.2416 134.144 24.3414 147.604 24.3414L147.594 24.1833Z" fill="#FAFAFA"/>
    <path d="M166.099 59.3943C158.835 59.3943 151.56 59.3111 144.295 59.3943C139.169 59.4774 137.696 57.1156 137.716 53.4399C137.716 49.6061 139.29 47.1029 144.618 47.1279C159.158 47.1944 173.697 47.1778 188.237 47.1279C193.736 47.1279 194.715 49.9554 194.765 53.6811C194.816 57.4067 193.211 59.3527 188.449 59.3028C181.002 59.2196 173.546 59.3028 166.099 59.3028V59.3943Z" fill="#FAFAFA"/>
    <path d="M169.096 70.4795C175.634 70.4795 182.213 70.5544 188.711 70.4795C193.282 70.413 194.765 72.4255 194.765 75.8269C194.765 79.2282 194.503 82.4382 189.115 82.4798C175.998 82.5796 162.951 82.538 149.875 82.538C144.083 82.538 143.921 79.2116 143.901 75.7104C143.881 72.2093 145.576 70.4047 150.056 70.4795C156.373 70.5544 162.729 70.4712 169.096 70.4795Z" fill="#FAFAFA"/>
    <path d="M178.399 127.512C177.169 127.494 175.956 127.276 174.829 126.87C173.702 126.464 172.683 125.879 171.831 125.148C170.979 124.417 170.31 123.555 169.864 122.611C169.417 121.666 169.201 120.659 169.227 119.645C169.378 117.608 170.477 115.698 172.294 114.313C174.112 112.928 176.509 112.175 178.984 112.21C181.361 112.364 183.586 113.231 185.238 114.648C186.89 116.064 187.853 117.931 187.944 119.895C187.876 121.94 186.839 123.883 185.055 125.306C183.271 126.73 180.882 127.522 178.399 127.512Z" fill="#FAFAFA"/>
    <path d="M142.842 127.554C138.069 127.554 133.317 123.562 133.499 119.704C133.67 115.986 138.281 112.219 142.741 112.136C145.218 112.157 147.586 112.974 149.344 114.412C151.102 115.85 152.11 117.796 152.155 119.837C152.167 120.85 151.935 121.854 151.472 122.792C151.008 123.73 150.324 124.583 149.457 125.301C148.591 126.019 147.56 126.588 146.424 126.975C145.288 127.362 144.071 127.559 142.842 127.554Z" fill="#FAFAFA"/>
</svg>
