<svg width="24" height="24" viewBox="0 0 24 24" fill="none" xmlns="http://www.w3.org/2000/svg">
    <path d="M14 13H9.85L11.45 14.6L10 16L6 12L10 8L11.45 9.4L9.85 11H14V13ZM21 19C21 19.55 20.8083 20.025 20.425 20.425C20.025 20.8083 19.55 21 19 21H5C4.45 21 3.98333 20.8083 3.6 20.425C3.2 20.025 3 19.55 3 19L3 5C3 4.45 3.2 3.98333 3.6 3.6C3.98333 3.2 4.45 3 5 3H19C19.55 3 20.025 3.2 20.425 3.6C20.8083 3.98333 21 4.45 21 5V19ZM19 19V5L16 5V8C16.6333 8.5 17.125 9.1 17.475 9.8C17.825 10.4833 18 11.2167 18 12C18 12.7833 17.825 13.525 17.475 14.225C17.125 14.9083 16.6333 15.5 16 16V19H19ZM16 12C16 11.3667 15.8167 10.7917 15.45 10.275C15.0833 9.75833 14.6 9.4 14 9.2L14 5H5L5 19H14V14.8C14.6 14.6 15.0833 14.2417 15.45 13.725C15.8167 13.2083 16 12.6333 16 12ZM19 19V16C19 15.5 19 14.9083 19 14.225C19 13.525 19 12.7833 19 12C19 11.2167 19 10.4833 19 9.8C19 9.1 19 8.5 19 8V5V19Z" fill="#1D1B20"/>
</svg>
