<svg width="110" height="109" viewBox="0 0 110 109" fill="none" xmlns="http://www.w3.org/2000/svg">
    <path d="M55.1406 99.7188C54.0833 99.7188 53.1771 99.4167 52.4219 98.8125C51.6667 98.2083 51.1003 97.4154 50.7227 96.4336C49.2878 92.2044 47.4753 88.2396 45.2852 84.5391C43.1706 80.8385 40.1875 76.4961 36.3359 71.5117C32.4844 66.5273 29.3503 61.7695 26.9336 57.2383C24.5924 52.707 23.4219 47.2318 23.4219 40.8125C23.4219 31.9766 26.4805 24.5 32.5977 18.3828C38.7904 12.1901 46.3047 9.09375 55.1406 9.09375C63.9766 9.09375 71.4531 12.1901 77.5703 18.3828C83.763 24.5 86.8594 31.9766 86.8594 40.8125C86.8594 47.6849 85.5378 53.4245 82.8945 58.0312C80.3268 62.5625 77.3438 67.056 73.9453 71.5117C69.8672 76.9492 66.7708 81.4805 64.6562 85.1055C62.6172 88.6549 60.918 92.431 59.5586 96.4336C59.181 97.4909 58.5768 98.3216 57.7461 98.9258C56.9909 99.4544 56.1224 99.7188 55.1406 99.7188ZM55.1406 52.1406C58.3125 52.1406 60.9935 51.0456 63.1836 48.8555C65.3737 46.6654 66.4688 43.9844 66.4688 40.8125C66.4688 37.6406 65.3737 34.9596 63.1836 32.7695C60.9935 30.5794 58.3125 29.4844 55.1406 29.4844C51.9688 29.4844 49.2878 30.5794 47.0977 32.7695C44.9076 34.9596 43.8125 37.6406 43.8125 40.8125C43.8125 43.9844 44.9076 46.6654 47.0977 48.8555C49.2878 51.0456 51.9688 52.1406 55.1406 52.1406Z" fill="#7F7F7F" fill-opacity="0.5" style="mix-blend-mode:luminosity"/>
    <path d="M55.1406 99.7188C54.0833 99.7188 53.1771 99.4167 52.4219 98.8125C51.6667 98.2083 51.1003 97.4154 50.7227 96.4336C49.2878 92.2044 47.4753 88.2396 45.2852 84.5391C43.1706 80.8385 40.1875 76.4961 36.3359 71.5117C32.4844 66.5273 29.3503 61.7695 26.9336 57.2383C24.5924 52.707 23.4219 47.2318 23.4219 40.8125C23.4219 31.9766 26.4805 24.5 32.5977 18.3828C38.7904 12.1901 46.3047 9.09375 55.1406 9.09375C63.9766 9.09375 71.4531 12.1901 77.5703 18.3828C83.763 24.5 86.8594 31.9766 86.8594 40.8125C86.8594 47.6849 85.5378 53.4245 82.8945 58.0312C80.3268 62.5625 77.3438 67.056 73.9453 71.5117C69.8672 76.9492 66.7708 81.4805 64.6562 85.1055C62.6172 88.6549 60.918 92.431 59.5586 96.4336C59.181 97.4909 58.5768 98.3216 57.7461 98.9258C56.9909 99.4544 56.1224 99.7188 55.1406 99.7188ZM55.1406 52.1406C58.3125 52.1406 60.9935 51.0456 63.1836 48.8555C65.3737 46.6654 66.4688 43.9844 66.4688 40.8125C66.4688 37.6406 65.3737 34.9596 63.1836 32.7695C60.9935 30.5794 58.3125 29.4844 55.1406 29.4844C51.9688 29.4844 49.2878 30.5794 47.0977 32.7695C44.9076 34.9596 43.8125 37.6406 43.8125 40.8125C43.8125 43.9844 44.9076 46.6654 47.0977 48.8555C49.2878 51.0456 51.9688 52.1406 55.1406 52.1406Z" fill="#3D3D3D" style="mix-blend-mode:overlay"/>
</svg>
