<svg width="34" height="35" viewBox="0 0 34 35" fill="none" xmlns="http://www.w3.org/2000/svg">
    <g clip-path="url(#clip0_20564_2374)">
        <path d="M24.9437 7.21058C22.4111 7.21058 19.8784 7.21601 17.3414 7.21058C17.0156 7.21058 16.8419 7.28986 16.7213 7.62654C15.9622 9.77364 14.0453 11.1149 11.7918 11.1127C10.715 11.1154 9.66444 10.7805 8.78782 10.1552C7.91121 9.52984 7.2526 8.64553 6.90457 7.62654C6.78728 7.29529 6.62328 7.20081 6.28987 7.20407C4.65103 7.21927 3.01219 7.21601 1.37335 7.20407C1.0581 7.20313 0.753864 7.08796 0.51703 6.87988C0.280195 6.6718 0.126813 6.38492 0.0853058 6.07241C0.00711074 5.37734 0.388312 4.77785 1.0269 4.60299C1.19858 4.56434 1.37451 4.54792 1.55038 4.55412C3.1208 4.55412 4.6923 4.54218 6.26272 4.55955C6.61242 4.55955 6.78402 4.46724 6.90674 4.1197C7.26541 3.10524 7.92976 2.22692 8.80831 1.60569C9.68686 0.984462 10.7364 0.650879 11.8124 0.650879C12.8884 0.650879 13.9379 0.984462 14.8165 1.60569C15.695 2.22692 16.3594 3.10524 16.7181 4.1197C16.8419 4.46724 17.0145 4.55412 17.3642 4.55412C22.4151 4.54326 27.4663 4.54109 32.5178 4.54761C33.3269 4.54761 33.896 5.02981 33.9481 5.74225C34.01 6.58176 33.442 7.19972 32.5819 7.20189C30.6324 7.20841 28.6819 7.20189 26.7314 7.20189L24.9437 7.21058ZM14.3776 5.86389C14.3592 4.46289 13.1613 3.28237 11.7885 3.31278C10.3766 3.34318 9.20698 4.54543 9.24716 5.91168C9.28843 7.30833 10.4418 8.44759 11.8157 8.44433C13.2036 8.44324 14.3983 7.24534 14.3776 5.86389Z" fill="black"/>
        <path d="M9.04637 18.917C6.51372 18.917 3.98106 18.917 1.4495 18.917C0.401467 18.917 -0.245815 17.8994 0.211409 16.9893C0.468802 16.4788 0.902133 16.2584 1.47013 16.2595C4.07012 16.2638 6.67047 16.2638 9.27118 16.2595C11.7495 16.2595 14.2279 16.2595 16.7062 16.266C17.0212 16.266 17.183 16.1867 17.297 15.8674C18.0573 13.7116 19.9752 12.3584 22.2157 12.3584C24.4562 12.3584 26.3677 13.7051 27.1388 15.8631C27.2474 16.1748 27.4048 16.2692 27.7252 16.2671C29.3641 16.2519 31.0029 16.2551 32.6417 16.2671C32.9362 16.2625 33.2235 16.3584 33.4561 16.5391C33.6886 16.7198 33.8527 16.9743 33.9211 17.2608C33.9917 17.5389 33.9713 17.8324 33.8628 18.098C33.7543 18.3637 33.5635 18.5876 33.3183 18.7367C33.0821 18.8724 32.8118 18.9372 32.5396 18.9235C30.929 18.9235 29.3174 18.9235 27.7057 18.9159C27.4048 18.9159 27.2528 18.9996 27.1453 19.2993C26.3622 21.4844 24.4638 22.8257 22.1951 22.8235C19.9665 22.8235 18.0616 21.4616 17.2894 19.2939C17.1808 18.9876 17.0212 18.9159 16.7258 18.917C14.166 18.9214 11.6062 18.917 9.04637 18.917ZM24.7831 17.6051C24.8048 16.2269 23.6221 15.0322 22.2255 15.0225C20.8288 15.0127 19.6505 16.2008 19.6527 17.5931C19.6636 18.265 19.9336 18.9067 20.4063 19.3842C20.8791 19.8618 21.5179 20.1384 22.1897 20.1562C23.557 20.1888 24.7614 19.005 24.7831 17.6051Z" fill="black"/>
        <path d="M24.9329 30.6256C22.4003 30.6256 19.8687 30.6321 17.3361 30.618C16.9951 30.618 16.8408 30.7266 16.7246 31.0524C16.3725 32.0782 15.7053 32.9666 14.8183 33.5907C13.9313 34.2148 12.8698 34.5428 11.7853 34.5277C9.57304 34.5277 7.65835 33.1626 6.89812 31.0307C6.78952 30.7233 6.64399 30.6147 6.316 30.618C4.71843 30.6354 3.11978 30.6278 1.52221 30.6245C0.662062 30.6256 0.0853737 30.0913 0.0788574 29.3104C0.0788574 28.4937 0.633825 27.968 1.52221 27.9659C3.11978 27.9659 4.71843 27.9561 6.316 27.9724C6.64181 27.9724 6.78626 27.8638 6.89486 27.5575C7.65509 25.4126 9.57956 24.0616 11.8266 24.0637C14.0475 24.0637 15.9655 25.4158 16.7235 27.5391C16.8398 27.8649 16.9983 27.967 17.3361 27.967C22.4043 27.9561 27.4692 27.9539 32.5309 27.9604C33.3682 27.9604 33.9428 28.4839 33.9514 29.2507C33.9667 30.05 33.4084 30.6147 32.5689 30.6158C30.1072 30.6209 27.6426 30.6209 25.1751 30.6158L24.9329 30.6256ZM11.7918 31.8593C13.1657 31.8811 14.3668 30.6918 14.3744 29.3006C14.382 27.93 13.2482 26.7767 11.8472 26.7289C10.4853 26.6822 9.27981 27.8584 9.24071 29.2659C9.21248 30.6332 10.3963 31.8376 11.7918 31.8593Z" fill="black"/>
    </g>
    <defs>
        <clipPath id="clip0_20564_2374">
            <rect width="33.9008" height="33.8748" fill="white" transform="translate(0.0626221 0.650879)"/>
        </clipPath>
    </defs>
</svg>
