<svg width="98" height="99" viewBox="0 0 98 99" fill="none" xmlns="http://www.w3.org/2000/svg">
    <path d="M56.0864 86.1094C55.3694 87.3454 54.3403 88.3713 53.1021 89.0845C51.864 89.7977 50.4601 90.173 49.0312 90.173C47.6024 90.173 46.1985 89.7977 44.9604 89.0845C43.7222 88.3713 42.6931 87.3454 41.9761 86.1094M73.5 33.0938C73.5 26.6042 70.9221 20.3805 66.3333 15.7917C61.7445 11.2029 55.5208 8.625 49.0312 8.625C42.5417 8.625 36.318 11.2029 31.7292 15.7917C27.1405 20.3805 24.5625 26.6042 24.5625 33.0938C24.5625 61.6406 12.3281 69.7969 12.3281 69.7969H85.7344C85.7344 69.7969 73.5 61.6406 73.5 33.0938Z" stroke="#757575" stroke-width="8.15625" stroke-linecap="round" stroke-linejoin="round"/>
</svg>
