<svg width="30" height="30" viewBox="0 0 30 30" fill="none" xmlns="http://www.w3.org/2000/svg">
    <path d="M15.1408 27L15.1409 25.5H15.1408L15.1408 27ZM5 21.5577L3.50017 21.5351L3.49317 21.9997L3.75001 22.3869L5 21.5577ZM25.2817 21.5577L26.5317 22.3869L26.7885 21.9997L26.7815 21.5351L25.2817 21.5577ZM15.1408 4.5C17.118 4.5 18.7113 6.09322 18.7113 8.07042H21.7113C21.7113 4.43636 18.7749 1.5 15.1408 1.5V4.5ZM18.7113 8.07042C18.7113 10.0476 17.118 11.6408 15.1408 11.6408V14.6408C18.7749 14.6408 21.7113 11.7045 21.7113 8.07042H18.7113ZM15.1408 11.6408C13.1636 11.6408 11.5704 10.0476 11.5704 8.07042H8.57041C8.57041 11.7045 11.5068 14.6408 15.1408 14.6408V11.6408ZM11.5704 8.07042C11.5704 6.09322 13.1636 4.5 15.1408 4.5V1.5C11.5068 1.5 8.57041 4.43636 8.57041 8.07042H11.5704ZM15.1408 25.5C11.5649 25.5 8.22671 23.7085 6.24999 20.7286L3.75001 22.3869C6.28255 26.2048 10.5594 28.5 15.1409 28.5L15.1408 25.5ZM6.49983 21.5803C6.50438 21.2783 6.65158 20.8929 7.15625 20.4199C7.66725 19.941 8.43935 19.4795 9.40063 19.0775C11.3293 18.2708 13.6555 17.8521 15.1408 17.8521V14.8521C13.2459 14.8521 10.527 15.3545 8.24304 16.3098C7.09798 16.7887 5.97184 17.4184 5.10484 18.2309C4.23152 19.0493 3.52097 20.1555 3.50017 21.5351L6.49983 21.5803ZM15.1408 17.8521C16.6173 17.8521 18.9437 18.2706 20.8752 19.0777C21.8379 19.4799 22.6117 19.9416 23.1241 20.4209C23.6304 20.8944 23.7773 21.2796 23.7819 21.5803L26.7815 21.5351C26.7607 20.1542 26.0478 19.0478 25.1734 18.2299C24.3052 17.4178 23.1776 16.7884 22.0318 16.3096C19.7465 15.3547 17.0278 14.8521 15.1408 14.8521V17.8521ZM24.0317 20.7286C22.055 23.7085 18.7168 25.5 15.1409 25.5L15.1408 28.5C19.7223 28.5 23.9991 26.2048 26.5317 22.3869L24.0317 20.7286Z" fill="#9B9B9B"/>
</svg>
