<svg width="24" height="24" viewBox="0 0 24 24" fill="none" xmlns="http://www.w3.org/2000/svg">
    <g clip-path="url(#clip0_20166_7309)">
        <path d="M11.9804 23.9842C9.80127 23.9853 7.66327 23.3911 5.79725 22.2657C3.93123 21.1404 2.40811 19.5266 1.39237 17.5987C1.36877 17.5554 1.34517 17.5122 1.31961 17.4689C1.24148 17.349 1.18614 17.2156 1.15638 17.0756C1.12703 16.926 1.15315 16.7708 1.22988 16.6391C1.30661 16.5074 1.42869 16.4081 1.57329 16.3598C1.64271 16.3381 1.71494 16.3269 1.78765 16.3263C1.90743 16.3243 2.02524 16.357 2.12681 16.4205C2.22838 16.484 2.30936 16.5757 2.35992 16.6843C2.67365 17.3241 3.04768 17.9325 3.47693 18.5014C5.41203 20.9714 7.92924 22.3775 10.9499 22.6764C11.3078 22.7118 11.6697 22.7295 12.0276 22.7295C14.3982 22.7323 16.7027 21.9479 18.5792 20.4992C20.4557 19.0505 21.798 17.0197 22.3953 14.7256C22.768 13.2876 22.8407 11.7882 22.6089 10.3209C22.3772 8.85362 21.8459 7.44971 21.0482 6.19655C20.2644 4.96166 19.2315 3.904 18.0154 3.09127C16.7994 2.27855 15.4271 1.72865 13.9863 1.47679C13.2724 1.34749 12.5485 1.28168 11.823 1.28013C8.67654 1.28013 5.93514 2.61543 3.67752 5.24866C3.61219 5.3261 3.55177 5.40755 3.4966 5.49252L3.46513 5.53972C3.41531 5.61435 3.3937 5.70428 3.40417 5.7934V6.26931L5.4435 5.65574L5.54969 5.62231C5.60734 5.60089 5.6665 5.58379 5.72669 5.57118C5.77851 5.56099 5.83119 5.55572 5.88401 5.55545C6.03455 5.55416 6.18071 5.60605 6.29673 5.70197C6.41275 5.79789 6.4912 5.93169 6.51823 6.07979C6.54526 6.22788 6.51915 6.38077 6.4445 6.5115C6.36985 6.64222 6.25145 6.74241 6.11017 6.79439C5.68932 6.94778 5.24881 7.08544 4.82403 7.2172L4.37959 7.35683L2.8319 7.84453L2.32256 8.00383C2.1955 8.04551 2.06294 8.06805 1.92924 8.07069C1.79945 8.07069 1.41203 8.07069 1.21144 7.44532C0.81813 6.19589 0.424817 4.94647 0.031503 3.69704C-0.000638881 3.59857 -0.0130153 3.49472 -0.00491581 3.39145C0.00318367 3.28818 0.0315995 3.18753 0.0787006 3.09527C0.119756 3.01951 0.175797 2.95289 0.243413 2.89948C0.31103 2.84606 0.388808 2.80696 0.472014 2.78455C0.5395 2.76354 0.609791 2.75293 0.680471 2.75309C0.830746 2.75912 0.974879 2.81435 1.09071 2.91029C1.20654 3.00622 1.28765 3.13754 1.32157 3.28406C1.39237 3.49842 1.45726 3.71671 1.51823 3.93303C1.57133 4.11199 1.62442 4.29094 1.68145 4.46794V4.48957C1.68738 4.59506 1.7299 4.69519 1.80168 4.77272C1.87347 4.85025 1.97004 4.90033 2.07477 4.91435H2.12983C2.21497 4.91053 2.29756 4.88411 2.36911 4.83779C2.44065 4.79148 2.49857 4.72695 2.53691 4.65083L2.54871 4.62919C3.56837 3.32095 4.84858 2.2387 6.30827 1.45097C7.76796 0.66324 9.37532 0.187197 11.0286 0.0529898C11.3688 0.0274244 11.711 0.015625 12.0453 0.015625C15.2665 0.015625 18.0925 1.19557 20.4523 3.49448C22.3883 5.35546 23.6086 7.83772 23.8997 10.5073C24.3481 14.348 23.1918 17.7069 20.4582 20.4876C18.6069 22.3775 16.1637 23.5755 13.5359 23.8819C13.0188 23.9494 12.4979 23.9835 11.9764 23.9842H11.9804Z" fill="#655F5F"/>
        <path d="M8.37173 17.06C7.48677 17.06 6.95973 16.5369 6.95776 15.6618C6.95776 13.2154 6.95776 10.7696 6.95776 8.3245C6.95776 7.44938 7.48677 6.92627 8.37173 6.92627H15.6795C16.5625 6.92627 17.0915 7.46118 17.0935 8.354V15.6303C17.0935 16.5231 16.5625 17.058 15.6795 17.058H8.37173V17.06ZM13.6992 15.7483C14.1554 15.7483 14.6097 15.7483 15.0758 15.7483H15.1013C15.1964 15.7552 15.2919 15.743 15.3821 15.7122C15.4723 15.6815 15.5554 15.6329 15.6264 15.5693C15.6903 15.4951 15.7389 15.4088 15.7692 15.3157C15.7996 15.2225 15.8112 15.1242 15.8034 15.0266C15.8034 13.8466 15.8034 12.6293 15.8034 11.4592V9.76993C15.8034 9.45724 15.8034 9.14456 15.8034 8.83384C15.8094 8.75306 15.7987 8.67191 15.772 8.59545C15.7452 8.51899 15.703 8.44884 15.648 8.3894C15.5916 8.33505 15.5246 8.29286 15.4512 8.26546C15.3778 8.23806 15.2995 8.22603 15.2213 8.2301H15.182C15.0482 8.2301 14.9145 8.2301 14.7886 8.2301C14.6628 8.2301 14.5153 8.2301 14.3796 8.2301H14.356C14.2758 8.22396 14.1951 8.23547 14.1198 8.26384C14.0445 8.29221 13.9764 8.33674 13.9201 8.39429C13.8639 8.45185 13.8209 8.52103 13.7943 8.59697C13.7677 8.67291 13.758 8.75377 13.766 8.83384C13.766 9.11506 13.766 9.39038 13.766 9.648C13.766 9.86236 13.766 10.0747 13.766 10.2812C13.7813 10.6619 13.7681 11.0431 13.7267 11.4218C13.6795 11.7739 13.4592 11.7935 13.3865 11.7994C12.9381 11.8368 12.4819 11.8565 12.0295 11.8565C11.5772 11.8565 11.121 11.8368 10.6667 11.7994C10.5763 11.7906 10.492 11.7496 10.4292 11.684C10.3664 11.6183 10.3293 11.5323 10.3245 11.4415C10.3031 11.3036 10.2926 11.1642 10.2931 11.0246V10.944C10.2931 10.2753 10.2931 9.58114 10.2931 8.9007C10.3045 8.71905 10.2437 8.54022 10.1239 8.40316C10.0652 8.34517 9.99493 8.30016 9.9177 8.27102C9.84046 8.24189 9.75797 8.22929 9.67556 8.23404H9.6087C9.49857 8.23404 9.38844 8.23404 9.27831 8.23404C9.16819 8.23404 9.08166 8.23404 8.97546 8.22224H8.885C8.80235 8.21773 8.71965 8.23005 8.6419 8.25845C8.56416 8.28684 8.49298 8.33072 8.43269 8.38743C8.36987 8.45886 8.32187 8.54206 8.29149 8.6322C8.2611 8.72234 8.24894 8.81762 8.2557 8.9125C8.25963 10.9282 8.25963 12.9951 8.25963 15.0659C8.25209 15.1599 8.26353 15.2545 8.29326 15.344C8.32299 15.4336 8.3704 15.5162 8.43269 15.587C8.50043 15.648 8.57972 15.6947 8.66587 15.7244C8.75201 15.7542 8.84325 15.7663 8.93416 15.7601C9.41204 15.7601 9.87025 15.7601 10.3285 15.7601H13.6992V15.7483ZM11.8211 8.2301C11.7403 8.22585 11.6594 8.23794 11.5834 8.26565C11.5074 8.29336 11.4377 8.33612 11.3786 8.39136C11.3248 8.45067 11.2836 8.52031 11.2576 8.59604C11.2315 8.67177 11.2212 8.75202 11.2272 8.83187C11.2272 9.02853 11.2272 9.20552 11.2272 9.39235C11.2272 9.57917 11.2272 9.74829 11.2272 9.92529C11.2272 10.0295 11.2272 10.1219 11.2272 10.1868C11.21 10.2838 11.2133 10.3832 11.237 10.4788C11.2608 10.5743 11.3043 10.6638 11.3648 10.7414C11.5182 10.8968 11.7306 10.8968 11.9548 10.8968H12.236C12.3159 10.9019 12.3959 10.8903 12.471 10.8629C12.5462 10.8355 12.6148 10.7928 12.6726 10.7375C12.7257 10.6802 12.7665 10.6125 12.7922 10.5388C12.8179 10.465 12.8281 10.3867 12.8221 10.3088C12.8221 10.177 12.8221 10.0452 12.8221 9.91545V9.45528C12.8221 9.36481 12.8221 9.27435 12.8221 9.18389C12.8221 9.09343 12.8221 9.00297 12.8221 8.93414C12.8385 8.83756 12.8344 8.73859 12.81 8.6437C12.7856 8.54882 12.7415 8.46015 12.6805 8.3835C12.5271 8.22617 12.3226 8.22617 12.0413 8.22617L11.8211 8.2301Z" fill="#655F5F"/>
    </g>
    <defs>
        <clipPath id="clip0_20166_7309">
            <rect width="24" height="23.9685" fill="white" transform="translate(0 0.015625)"/>
        </clipPath>
    </defs>
</svg>
