<svg width="34" height="35" viewBox="0 0 34 35" fill="none" xmlns="http://www.w3.org/2000/svg">
    <path d="M35.9667 39.5881L22.3167 25.9381C21.2333 26.8048 19.9875 27.4909 18.5792 27.9965C17.1708 28.502 15.6722 28.7548 14.0833 28.7548C10.1472 28.7548 6.81597 27.3916 4.08958 24.6652C1.36319 21.9388 0 18.6076 0 14.6715C0 10.7354 1.36319 7.40411 4.08958 4.67772C6.81597 1.95133 10.1472 0.588135 14.0833 0.588135C18.0194 0.588135 21.3507 1.95133 24.0771 4.67772C26.8035 7.40411 28.1667 10.7354 28.1667 14.6715C28.1667 16.2604 27.9139 17.759 27.4083 19.1673C26.9028 20.5756 26.2167 21.8215 25.35 22.9048L39 36.5548L35.9667 39.5881ZM14.0833 24.4215C16.7917 24.4215 19.0938 23.4736 20.9896 21.5777C22.8854 19.6819 23.8333 17.3798 23.8333 14.6715C23.8333 11.9631 22.8854 9.66105 20.9896 7.76522C19.0938 5.86938 16.7917 4.92147 14.0833 4.92147C11.375 4.92147 9.07292 5.86938 7.17708 7.76522C5.28125 9.66105 4.33333 11.9631 4.33333 14.6715C4.33333 17.3798 5.28125 19.6819 7.17708 21.5777C9.07292 23.4736 11.375 24.4215 14.0833 24.4215Z" fill="#49454F"/>
</svg>
