<svg width="30" height="30" viewBox="0 0 30 30" fill="none" xmlns="http://www.w3.org/2000/svg">
    <g clip-path="url(#clip0_20518_143)">
        <path d="M8.75 30C10.1307 30 11.25 28.8807 11.25 27.5C11.25 26.1193 10.1307 25 8.75 25C7.36929 25 6.25 26.1193 6.25 27.5C6.25 28.8807 7.36929 30 8.75 30Z" fill="#A5A1A1"/>
        <path d="M21.25 30C22.6307 30 23.75 28.8807 23.75 27.5C23.75 26.1193 22.6307 25 21.25 25C19.8693 25 18.75 26.1193 18.75 27.5C18.75 28.8807 19.8693 30 21.25 30Z" fill="#A5A1A1"/>
        <path d="M28.73 7.5225C27.8501 6.68112 26.6722 6.22343 25.455 6.25H7.0675L6.73875 3.6725C6.61938 2.66087 6.13297 1.72819 5.37175 1.0513C4.61053 0.374398 3.6274 0.000327346 2.60875 0L1.875 0C1.37772 0 0.900805 0.197544 0.549175 0.549175C0.197544 0.900805 0 1.37772 0 1.875C0 2.37228 0.197544 2.84919 0.549175 3.20083C0.900805 3.55246 1.37772 3.75 1.875 3.75H2.60875C2.71101 3.7511 2.80924 3.79002 2.88449 3.85927C2.95974 3.92852 3.00668 4.02318 3.01625 4.125L4.89125 18.8237C5.00951 19.8362 5.49547 20.7699 6.25683 21.4476C7.0182 22.1253 8.00195 22.4998 9.02125 22.5H21.6738C23.1788 22.4991 24.642 22.0044 25.8388 21.0917C27.0356 20.1789 27.8998 18.8987 28.2987 17.4475L29.8563 11.7838C30.0639 11.0374 30.069 10.2493 29.871 9.50038C29.6731 8.75145 29.2793 8.06876 28.73 7.5225ZM24.6875 16.4538C24.5045 17.1129 24.1109 17.6941 23.5668 18.1087C23.0226 18.5232 22.3578 18.7485 21.6738 18.75H9.02125C8.91904 18.7492 8.82081 18.7103 8.74571 18.641C8.6706 18.5716 8.62401 18.4768 8.615 18.375L7.54625 10H25.6425C25.739 9.99928 25.8344 10.0209 25.9212 10.0633C26.008 10.1056 26.0838 10.1675 26.1426 10.244C26.2015 10.3205 26.2418 10.4097 26.2604 10.5044C26.2791 10.5991 26.2755 10.6969 26.25 10.79L24.6875 16.4538Z" fill="#A5A1A1"/>
    </g>
    <defs>
        <clipPath id="clip0_20518_143">
            <rect width="30" height="30" fill="white"/>
        </clipPath>
    </defs>
</svg>
