<svg width="39" height="29" viewBox="0 0 39 29" fill="none" xmlns="http://www.w3.org/2000/svg">
    <g clip-path="url(#clip0_20049_5691)">
        <path d="M38.2398 28.0613C38.1469 28.2216 38.0098 28.3517 37.8449 28.4362C37.68 28.5206 37.4943 28.5558 37.3099 28.5375C25.279 28.5375 13.2432 28.5375 1.20227 28.5375C0.678423 28.5375 0.400209 28.3771 0.282407 28.0162C0.239085 27.8961 0.227055 27.767 0.247449 27.6409C0.267844 27.5149 0.319992 27.3961 0.398979 27.2958C0.477967 27.1955 0.581191 27.117 0.698926 27.0676C0.816661 27.0183 0.945029 26.9997 1.07193 27.0136C2.46801 27.0136 3.8666 27.0136 5.26268 27.0136H5.64867C5.71134 26.8582 5.60607 26.7981 5.55343 26.7254C5.04732 26.0478 4.75182 25.2363 4.70375 24.3919C4.70375 24.1613 4.59597 24.0961 4.38293 24.0987C3.75381 24.0987 3.12971 24.0987 2.49308 24.0987C2.19635 24.1048 1.90143 24.051 1.62595 23.9405C1.35047 23.8301 1.10009 23.6652 0.889753 23.4558C0.67942 23.2464 0.513458 22.9968 0.401785 22.7218C0.290111 22.4468 0.235018 22.1522 0.239797 21.8554C0.239797 15.4172 0.239797 8.97902 0.239797 2.54084C0.234716 2.24539 0.289121 1.95194 0.399772 1.67795C0.510424 1.40396 0.675062 1.15503 0.883889 0.945965C1.09272 0.736905 1.34146 0.571988 1.61533 0.46103C1.8892 0.350072 2.18259 0.295339 2.47804 0.300089H23.72C24.0146 0.29638 24.3068 0.351694 24.5796 0.462769C24.8524 0.573843 25.1002 0.738428 25.3083 0.946812C25.5165 1.1552 25.6808 1.40316 25.7916 1.67607C25.9023 1.94898 25.9573 2.24132 25.9533 2.53583C25.9533 4.11738 25.9533 5.69894 25.9533 7.2805C25.9533 7.62388 26.051 7.72414 26.3919 7.72163C28.2592 7.70659 30.124 7.72163 31.9913 7.7091C32.4652 7.67994 32.9365 7.79827 33.3404 8.0478C33.7443 8.29734 34.061 8.66584 34.2471 9.10268C35.522 11.681 36.8019 14.2609 38.0869 16.8425C38.132 16.9303 38.1847 17.013 38.2323 17.0932V22.3567C38.1384 22.6896 37.9754 22.999 37.7538 23.2646C37.5323 23.5302 37.2572 23.7461 36.9465 23.8981C36.8898 23.9225 36.8424 23.9643 36.8113 24.0175C36.7802 24.0708 36.7669 24.1326 36.7735 24.1939C36.7592 25.1121 36.4538 26.002 35.9013 26.7354C35.8537 26.8006 35.7484 26.8607 35.8086 26.9535C35.8687 27.0462 35.969 27.0011 36.0592 27.0011C36.4778 27.0011 36.8964 27.0186 37.3124 27.0011C37.4964 26.9773 37.6833 27.0098 37.8484 27.0944C38.0135 27.1789 38.1491 27.3116 38.2373 27.4748L38.2398 28.0613ZM13.1028 1.83653H2.82643C2.02939 1.83653 1.77875 2.08717 1.77624 2.87169V8.54374C1.77624 11.1028 1.77624 13.6619 1.77624 16.2184C1.77624 16.5242 1.86898 16.632 2.17727 16.622C2.74372 16.6019 3.31268 16.622 3.88164 16.622C4.4506 16.622 4.75137 16.8952 4.75137 17.4817C4.75137 18.3974 4.75137 19.3164 4.75137 20.2387C4.75137 20.8503 4.47817 21.1235 3.87162 21.1285C3.26506 21.1335 2.71114 21.1285 2.11711 21.1285C1.98929 21.1285 1.84391 21.0934 1.78125 21.2789C1.72357 21.424 1.70324 21.5812 1.72211 21.7361C1.74097 21.8911 1.79844 22.0388 1.88925 22.1658C1.98005 22.2928 2.10127 22.3949 2.24181 22.4629C2.38234 22.5308 2.53768 22.5624 2.69359 22.5547C3.29764 22.5547 3.9042 22.5547 4.50825 22.5547C4.63391 22.5709 4.76127 22.5426 4.86835 22.4749C4.97543 22.4072 5.0555 22.3042 5.09475 22.1837C5.93441 20.5094 7.29039 19.5996 9.17272 19.5996C11.055 19.5996 12.4085 20.527 13.2407 22.1988C13.2839 22.317 13.3659 22.417 13.4734 22.4826C13.5808 22.5481 13.7073 22.5753 13.8322 22.5597C17.2058 22.5597 20.5795 22.5597 23.9531 22.5597C24.3291 22.5597 24.4294 22.4544 24.4294 22.0785C24.4193 15.6904 24.4193 9.30152 24.4294 2.91179C24.4294 2.07464 24.1787 1.83904 23.3416 1.83904L13.1028 1.83653ZM25.9558 15.8725C25.9558 17.9629 25.9558 20.0508 25.9558 22.1386C25.9558 22.467 26.0535 22.5747 26.3794 22.5572C26.7967 22.5311 27.2153 22.5311 27.6326 22.5572C27.7641 22.5764 27.8982 22.5481 28.0107 22.4773C28.1233 22.4066 28.2069 22.2981 28.2467 22.1712C28.9986 20.6272 30.2518 19.7249 31.9562 19.5996C33.8285 19.4643 35.2496 20.2713 36.2171 21.8704C36.2998 22.0083 36.3174 22.289 36.4978 22.2464C36.6783 22.2038 36.6933 21.9331 36.7159 21.7451C36.7206 21.6616 36.7206 21.578 36.7159 21.4945C36.7159 20.542 36.6983 19.5896 36.7159 18.6396C36.7159 18.2637 36.6181 18.1584 36.2397 18.1584C33.5829 18.176 30.926 18.1584 28.2692 18.1584C27.6351 18.1584 27.3669 17.8902 27.3669 17.2586C27.3669 15.3821 27.3669 13.504 27.3669 11.6241C27.3669 10.9449 27.6175 10.6943 28.3143 10.6943H32.4675C33.257 10.6943 33.2319 10.6943 32.9036 9.97241C32.8183 9.74079 32.658 9.54438 32.4481 9.41447C32.2383 9.28455 31.991 9.22862 31.7456 9.25557C29.9535 9.27813 28.1614 9.27061 26.3718 9.25557C26.036 9.25557 25.9232 9.34329 25.9257 9.69169C25.9658 11.7445 25.9558 13.8072 25.9558 15.87V15.8725ZM12.6567 26.9635H28.8733C28.7479 26.7855 28.6527 26.6552 28.565 26.5249C28.1515 25.9328 27.9055 25.24 27.8531 24.5197C27.8306 24.1588 27.7178 24.0736 27.3719 24.0736C23.492 24.0836 19.612 24.0836 15.732 24.0736C15.1631 24.0736 14.5941 24.0736 14.0252 24.0736C13.7369 24.0736 13.6517 24.1588 13.6317 24.4496C13.5754 25.2071 13.3156 25.9353 12.8797 26.5575C12.7732 26.6724 12.6966 26.8119 12.6567 26.9635ZM32.5878 16.6144C33.6731 16.6144 34.7584 16.6144 35.8462 16.6144C36.1294 16.6144 36.2372 16.5794 36.0793 16.2711C35.4376 15.0179 34.8135 13.7646 34.1919 12.4964C34.1574 12.4054 34.0943 12.328 34.012 12.276C33.9297 12.224 33.8328 12.2002 33.7357 12.2081C32.2544 12.2081 30.7731 12.2081 29.2918 12.2081C28.9911 12.2081 28.9159 12.3159 28.9184 12.5966C28.9184 13.8072 28.9334 15.0153 28.9184 16.226C28.9184 16.5468 29.0387 16.6195 29.3319 16.6144C30.4147 16.6069 31.5 16.6144 32.5878 16.6144ZM9.14013 26.9886C10.7317 26.9485 12.0626 25.8131 12.0902 24.0861C12.102 23.7008 12.0359 23.3171 11.8958 22.9579C11.7557 22.5988 11.5444 22.2716 11.2748 21.9961C11.0051 21.7206 10.6826 21.5024 10.3266 21.3546C9.97052 21.2068 9.58828 21.1325 9.20279 21.136C8.81746 21.1246 8.43378 21.191 8.07477 21.3314C7.71575 21.4719 7.3888 21.6834 7.11353 21.9533C6.83826 22.2231 6.62035 22.5458 6.47286 22.902C6.32537 23.2582 6.25135 23.6405 6.25523 24.026C6.22515 25.615 7.41571 26.8958 9.14013 26.9886ZM32.3046 21.1235C31.7229 21.1236 31.1543 21.2966 30.6713 21.6207C30.1882 21.9447 29.8124 22.4051 29.5916 22.9433C29.3709 23.4815 29.3152 24.0731 29.4317 24.6431C29.5481 25.213 29.8314 25.7354 30.2456 26.1439C30.6597 26.5524 31.186 26.8284 31.7574 26.937C32.3289 27.0456 32.9198 26.9818 33.4549 26.7537C33.99 26.5255 34.4451 26.1434 34.7625 25.6559C35.0798 25.1684 35.245 24.5976 35.2371 24.0159C35.2146 23.249 34.8972 22.5203 34.351 21.9816C33.8047 21.4428 33.0717 21.1355 32.3046 21.1235ZM3.21242 18.8477C3.21242 18.0582 3.30767 18.1434 2.53318 18.1459C1.67097 18.1459 1.78125 18.0306 1.78125 18.8978C1.78125 19.6748 1.69102 19.5821 2.47804 19.5821C3.31519 19.5771 3.2024 19.6848 3.21242 18.8477Z" fill="black"/>
        <path d="M16.0304 6.28547C14.5115 6.28547 12.9901 6.28547 11.4712 6.28547C11.3669 6.29726 11.2612 6.28749 11.1608 6.25677C11.0604 6.22605 10.9673 6.17503 10.8874 6.10688C10.8075 6.03872 10.7424 5.95488 10.6963 5.86056C10.6501 5.76623 10.6238 5.66343 10.619 5.55852C10.6142 5.45361 10.6309 5.34883 10.6683 5.25067C10.7056 5.15251 10.7627 5.06306 10.836 4.98787C10.9094 4.91269 10.9973 4.85336 11.0945 4.81357C11.1917 4.77378 11.296 4.75437 11.401 4.75655C12.1054 4.74402 12.8097 4.75655 13.5115 4.75655C15.8859 4.75655 18.2578 4.75655 20.6272 4.75655C20.7936 4.73595 20.9623 4.76818 21.1094 4.84869C21.2565 4.9292 21.3745 5.05392 21.4468 5.2052C21.5081 5.326 21.5357 5.46112 21.5265 5.59627C21.5174 5.73143 21.4719 5.86161 21.3948 5.97304C21.3178 6.08447 21.2121 6.17303 21.0889 6.22935C20.9657 6.28567 20.8296 6.30765 20.6949 6.29299C19.1334 6.29048 17.5769 6.28547 16.0304 6.28547Z" fill="black"/>
        <path d="M17.5343 9.25062H14.5266C13.9225 9.25062 13.5992 8.98244 13.5917 8.49869C13.5842 8.01495 13.915 7.7217 14.5065 7.7217C16.5568 7.7217 18.607 7.7217 20.6573 7.7217C20.8104 7.70883 20.9637 7.74206 21.0978 7.8171C21.2318 7.89214 21.3402 8.00557 21.4092 8.14278C21.4765 8.26951 21.5061 8.41283 21.4946 8.55584C21.483 8.69884 21.4308 8.83556 21.3441 8.94985C21.2617 9.05863 21.1527 9.14437 21.0276 9.1988C20.9025 9.25324 20.7655 9.27454 20.6297 9.26065C19.6071 9.24812 18.5695 9.25062 17.5343 9.25062Z" fill="black"/>
        <path d="M8.4335 4.75406C8.58448 4.75456 8.73194 4.79975 8.85727 4.88394C8.9826 4.96813 9.08019 5.08755 9.13774 5.22713C9.19529 5.36671 9.21022 5.52021 9.18064 5.66827C9.15107 5.81633 9.07831 5.95231 8.97155 6.05907C8.86479 6.16583 8.7288 6.23859 8.58075 6.26817C8.43269 6.29774 8.27919 6.28282 8.13961 6.22527C8.00002 6.16772 7.8806 6.07012 7.79641 5.94479C7.71222 5.81946 7.66703 5.67201 7.66654 5.52103C7.66449 5.41975 7.68293 5.3191 7.72075 5.22512C7.75857 5.13114 7.81499 5.04577 7.88662 4.97414C7.95825 4.90251 8.04362 4.84609 8.13759 4.80827C8.23157 4.77045 8.33222 4.75201 8.4335 4.75406Z" fill="black"/>
        <path d="M9.17032 22.5497C9.46839 22.5497 9.75973 22.6383 10.0074 22.8043C10.255 22.9702 10.4477 23.2059 10.5611 23.4816C10.6744 23.7573 10.7033 24.0604 10.6441 24.3526C10.5848 24.6447 10.4401 24.9126 10.2283 25.1223C10.0164 25.332 9.74708 25.474 9.45438 25.5304C9.16167 25.5867 8.85884 25.5547 8.58432 25.4386C8.3098 25.3225 8.07598 25.1274 7.91256 24.8781C7.74914 24.6288 7.66348 24.3366 7.66646 24.0386C7.66543 23.8415 7.70375 23.6462 7.77915 23.4641C7.85455 23.282 7.96553 23.1168 8.10558 22.9782C8.24563 22.8395 8.41194 22.7302 8.59477 22.6566C8.77759 22.5831 8.97326 22.5467 9.17032 22.5497Z" fill="black"/>
        <path d="M33.8261 24.0536C33.8261 24.3511 33.7379 24.6418 33.5726 24.8891C33.4074 25.1364 33.1725 25.3292 32.8977 25.443C32.6229 25.5568 32.3206 25.5866 32.0288 25.5286C31.7371 25.4706 31.4691 25.3273 31.2588 25.117C31.0485 24.9067 30.9053 24.6387 30.8473 24.347C30.7892 24.0553 30.819 23.7529 30.9328 23.4781C31.0467 23.2033 31.2394 22.9685 31.4867 22.8032C31.734 22.638 32.0248 22.5498 32.3222 22.5498C32.5203 22.5477 32.7167 22.5853 32.9001 22.6601C33.0835 22.735 33.25 22.8457 33.3901 22.9857C33.5301 23.1258 33.6408 23.2924 33.7157 23.4757C33.7906 23.6591 33.8281 23.8556 33.8261 24.0536Z" fill="black"/>
    </g>
    <defs>
        <clipPath id="clip0_20049_5691">
            <rect width="38" height="28.2375" fill="white" transform="translate(0.23999 0.300049)"/>
        </clipPath>
    </defs>
</svg>
