<svg width="30" height="30" viewBox="0 0 30 30" fill="none" xmlns="http://www.w3.org/2000/svg">
    <g clip-path="url(#clip0_20518_133)">
        <path d="M21.5625 2.31372C20.2804 2.32612 19.019 2.63865 17.8794 3.22625C16.7398 3.81385 15.7537 4.66019 15 5.69747C14.2463 4.66019 13.2602 3.81385 12.1206 3.22625C10.981 2.63865 9.71961 2.32612 8.4375 2.31372C6.11471 2.40648 3.92315 3.41519 2.34202 5.1193C0.760886 6.82341 -0.0811614 9.08425 -4.62774e-06 11.4075C-4.62774e-06 17.0975 5.8425 23.1887 10.75 27.2975C11.9417 28.2995 13.4487 28.8489 15.0056 28.8489C16.5626 28.8489 18.0696 28.2995 19.2612 27.2975C24.1637 23.1887 30.0112 17.0975 30.0112 11.4075C30.0924 9.08238 29.2488 6.81989 27.6652 5.11546C26.0817 3.41103 23.8873 2.40358 21.5625 2.31372ZM16.8462 24.4237C16.3293 24.859 15.6752 25.0977 14.9994 25.0977C14.3236 25.0977 13.6695 24.859 13.1525 24.4237C7.1775 19.4137 3.75 14.67 3.75 11.4075C3.6703 10.079 4.11785 8.77269 4.99547 7.7722C5.8731 6.77171 7.10995 6.15778 8.4375 6.06372C9.76504 6.15778 11.0019 6.77171 11.8795 7.7722C12.7571 8.77269 13.2047 10.079 13.125 11.4075C13.125 11.9048 13.3225 12.3817 13.6742 12.7333C14.0258 13.0849 14.5027 13.2825 15 13.2825C15.4973 13.2825 15.9742 13.0849 16.3258 12.7333C16.6775 12.3817 16.875 11.9048 16.875 11.4075C16.7953 10.079 17.2428 8.77269 18.1205 7.7722C18.9981 6.77171 20.235 6.15778 21.5625 6.06372C22.89 6.15778 24.1269 6.77171 25.0045 7.7722C25.8821 8.77269 26.3297 10.079 26.25 11.4075C26.25 14.67 22.8225 19.4137 16.8462 24.4237Z" fill="#A5A1A1"/>
    </g>
    <defs>
        <clipPath id="clip0_20518_133">
            <rect width="30" height="30" fill="white"/>
        </clipPath>
    </defs>
</svg>
