<svg width="375" height="88" viewBox="0 0 375 88" fill="none" xmlns="http://www.w3.org/2000/svg">
    <path fill-rule="evenodd" clip-rule="evenodd" d="M231.906 17.4657C217.031 26.1986 202.156 34.9315 187.004 34.9315C171.851 34.9315 156.976 26.1986 142.102 17.4657C127.227 8.73287 112.352 0 97.1997 0L-6.17808 3.90104e-06C-8.15183 3.97553e-06 -10.0952 0.130173 -12 0.382395V87.4756C-10.1036 87.7267 -8.16903 87.8568 -6.20428 87.858C-6.19556 87.858 -6.18684 87.858 -6.17811 87.858H380.185C380.194 87.858 380.203 87.858 380.212 87.858C381.812 87.8571 383.393 87.7705 384.949 87.6027V0.255268C383.384 0.0865588 381.795 3.96178e-06 380.185 3.90104e-06L276.808 0C261.655 0 246.78 8.73287 231.906 17.4657Z" fill="#EDDFDF"/>
</svg>
