<svg width="21" height="24" viewBox="0 0 21 24" fill="none" xmlns="http://www.w3.org/2000/svg">
    <g clip-path="url(#clip0_20518_2669)">
        <path d="M6.41787 5.57454C7.46572 5.58023 8.30692 5.91785 9.15626 6.21968C9.23273 6.24734 9.31002 6.27256 9.38324 6.30754C10.1968 6.70455 10.9818 6.58252 11.784 6.25385C12.5439 5.94307 13.32 5.63881 14.1433 5.56884C16.2422 5.39068 18.0483 5.9805 19.4224 7.66128C19.5851 7.86385 19.4988 7.94602 19.3304 8.05666C18.2891 8.74166 17.4707 9.62192 17.1664 10.8552C16.5538 13.3357 17.4511 15.6031 19.8007 16.8633C20.2888 17.1244 20.2074 17.0374 20.0447 17.4921C19.3793 19.3414 18.2999 21.0141 16.889 22.3823C15.9664 23.2772 14.8706 23.4928 13.6543 23.0942C13.2207 22.9526 12.7952 22.7883 12.3632 22.641C11.1869 22.2343 10.0292 22.3311 8.88779 22.7826C8.39242 22.9921 7.87881 23.1555 7.35345 23.2707C6.3772 23.4644 5.57016 23.108 4.8819 22.4613C3.34675 21.0205 2.24846 19.2884 1.49106 17.3278C0.92483 15.8667 0.575006 14.3608 0.547345 12.7964C0.512363 10.6811 1.03547 8.75305 2.59503 7.22522C3.61232 6.20782 4.97977 5.61736 6.41787 5.57454Z" fill="black"/>
        <path d="M15.3066 0.573854C15.2472 2.21152 14.4792 3.48959 13.2728 4.53662C12.565 5.15085 11.7506 5.52833 10.7996 5.59423C10.4262 5.61864 10.3237 5.56169 10.3391 5.19397C10.4327 2.97055 11.5521 1.43051 13.5241 0.475415C13.9505 0.258433 14.4104 0.114605 14.8844 0.0499323C15.2798 0.00111967 15.3017 0.0295937 15.3058 0.421721C15.3066 0.472161 15.3066 0.52016 15.3066 0.573854Z" fill="black"/>
    </g>
    <defs>
        <clipPath id="clip0_20518_2669">
            <rect width="19.6235" height="23.2885" fill="white" transform="translate(0.547363 0.0319824)"/>
        </clipPath>
    </defs>
</svg>
