<svg width="30" height="30" viewBox="0 0 30 30" fill="none" xmlns="http://www.w3.org/2000/svg">
    <path d="M25.7929 24.5891L25.7987 24.6436L25.8095 24.6973C25.8263 24.78 25.8333 24.8487 25.8333 24.9091C25.8333 25.4694 25.4123 25.8333 25 25.8333H15H5C4.58766 25.8333 4.16667 25.4694 4.16667 24.9091C4.16667 24.8487 4.17373 24.78 4.19046 24.6973L4.20134 24.6436L4.20713 24.5891L6.16013 6.21422L6.16667 6.15274V6.09091C6.16667 5.5306 6.58766 5.16667 7 5.16667H9.3967C8.4579 5.60413 7.83333 6.58085 7.83333 7.65909C7.83333 8.51243 8.21856 9.28404 8.83333 9.78791V10.2727C8.83333 13.75 11.5503 16.6667 15 16.6667C18.4497 16.6667 21.1667 13.75 21.1667 10.2727V9.78791C21.7814 9.28404 22.1667 8.51243 22.1667 7.65909C22.1667 6.58085 21.5421 5.60413 20.6033 5.16667H23C23.4123 5.16667 23.8333 5.5306 23.8333 6.09091V6.15274L23.8399 6.21422L25.7929 24.5891ZM13.1667 7.65909C13.1667 6.58085 12.5421 5.60413 11.6033 5.16667H15H18.3967C17.4579 5.60413 16.8333 6.58085 16.8333 7.65909V10.2727C16.8333 11.407 15.9613 12.2424 15 12.2424C14.0387 12.2424 13.1667 11.407 13.1667 10.2727V7.65909Z" stroke="#9B9B9B" stroke-width="2.33333"/>
</svg>
