<svg width="39" height="39" viewBox="0 0 39 39" fill="none" xmlns="http://www.w3.org/2000/svg">
    <g clip-path="url(#clip0_20049_5706)">
        <path d="M6.48658 36.0377C6.48658 36.3598 6.48658 36.6819 6.48658 37.004C6.48808 37.1858 6.47655 37.3675 6.45207 37.5476C6.44809 37.6322 6.42649 37.7151 6.38867 37.791C6.35085 37.8668 6.29763 37.934 6.23241 37.9881C6.16719 38.0422 6.0914 38.0821 6.00989 38.1053C5.92837 38.1285 5.84291 38.1345 5.75897 38.1228C5.67385 38.1244 5.58936 38.108 5.51103 38.0746C5.4327 38.0413 5.36231 37.9918 5.30446 37.9293C5.24662 37.8668 5.20264 37.7929 5.17539 37.7122C5.14815 37.6315 5.13827 37.546 5.14639 37.4613C5.14639 36.4375 5.16077 35.4136 5.19816 34.3898C5.19816 34.1022 5.16364 33.9584 4.84154 33.9584C3.93561 33.9584 3.38055 33.5558 2.9923 32.6815C2.21004 30.9128 1.29836 29.2159 0.421194 27.4961C0.242305 27.1488 0.193349 26.749 0.283148 26.3687C0.507825 25.4293 0.927167 24.5475 1.51406 23.7804C2.0676 22.9949 2.69033 22.2605 3.3748 21.586C4.02189 20.9504 4.65748 20.3034 5.30457 19.6649C5.45699 19.5153 5.53177 19.4003 5.3966 19.1702C5.16077 18.7705 5.21829 18.5116 5.5634 18.1608C6.19036 17.5223 6.8202 16.8867 7.46441 16.2626C7.66285 16.0699 7.72037 15.9233 7.53056 15.6874C7.17472 15.2234 6.89245 14.7074 6.69365 14.1574C6.63326 14.0021 6.57862 13.8698 6.38017 13.8008C4.43028 13.2256 4.28648 11.2527 4.89043 9.98442C4.96755 9.86851 5.00578 9.73106 4.99958 9.59197C4.99337 9.45288 4.94306 9.31938 4.85592 9.21079C4.66464 8.92942 4.57163 8.59276 4.59133 8.2531C4.59133 7.20337 4.59133 6.15077 4.59133 5.08955C4.59133 3.31796 5.41673 2.0209 6.94961 1.16962C8.20353 0.488018 9.58399 0.255065 10.9903 0.171663C11.9605 0.0825113 12.9386 0.145585 13.8893 0.3586C15.8363 0.859016 17.0528 2.10718 17.5533 4.04557C17.651 4.42808 17.8063 4.54024 18.1802 4.52298C18.8014 4.49422 19.4255 4.5086 20.0467 4.52298C21.5595 4.54024 23.0003 5.84305 23.1269 7.3443C23.1513 7.67661 23.0929 8.00979 22.9569 8.31397C22.8209 8.61815 22.6115 8.88381 22.3475 9.08712C21.6277 9.64991 20.7631 9.99696 19.854 10.088C19.4846 10.1588 19.1082 10.1868 18.7324 10.1714C18.416 10.1455 18.3384 10.2835 18.3355 10.5797C18.3417 12.046 18.0694 13.5002 17.5331 14.8649C17.3339 15.4016 17.0342 15.8955 16.6502 16.3202C16.4058 16.579 16.4489 16.74 16.6962 16.9442C16.9107 17.1118 17.1039 17.3049 17.2714 17.5194C17.7546 18.1694 18.4218 18.4167 19.1954 18.5461C19.483 18.595 19.5348 18.5203 19.5348 18.2585C19.5348 17.065 19.5348 15.8715 19.5348 14.6809C19.5348 14.0194 19.7073 13.844 20.3602 13.844H37.4405C38.0675 13.844 38.24 14.0165 38.24 14.6636C38.24 20.0972 38.24 25.5309 38.24 30.9645C38.24 31.7669 38.0502 31.9538 37.2622 31.9538C36.0715 31.9538 34.878 31.9538 33.6845 31.9538C33.3653 31.9538 33.233 32.0372 33.1927 32.3795C33.1547 32.7589 33.013 33.1206 32.7832 33.4249C32.5535 33.7293 32.2444 33.9646 31.8899 34.1051C31.383 34.3418 30.8301 34.4636 30.2707 34.4617C28.6343 34.4617 27.0008 34.4617 25.3816 34.4617C24.6092 34.4768 23.8395 34.5577 23.0808 34.7033C23.022 34.7017 22.9635 34.7132 22.9096 34.7367C22.8556 34.7602 22.8075 34.7953 22.7686 34.8394C22.7296 34.8836 22.7008 34.9357 22.6842 34.9922C22.6676 35.0487 22.6636 35.1081 22.6725 35.1663C22.6897 35.8278 22.6725 36.4892 22.6725 37.1507C22.6754 37.3185 22.6609 37.4862 22.6293 37.6511C22.5998 37.8092 22.5129 37.9508 22.3854 38.0487C22.2579 38.1467 22.0988 38.1942 21.9384 38.1821C21.7781 38.17 21.6279 38.0991 21.5165 37.9831C21.4052 37.8671 21.3406 37.714 21.3351 37.5533C21.3351 36.9062 21.3351 36.2563 21.3351 35.6092C21.3351 35.1059 21.3035 35.0886 20.8318 35.2583C18.4275 36.1211 16.0405 37.027 13.5672 37.677C12.6005 37.9767 11.594 38.128 10.5819 38.1256C9.21587 38.0653 8.10575 37.4412 7.1308 36.5266C6.94674 36.3512 6.78281 36.1527 6.61025 35.9514L6.48658 36.0377ZM36.9717 22.9118C36.9717 20.473 36.9717 18.0227 36.9717 15.5983C36.9717 15.2704 36.8969 15.141 36.5403 15.1439C35.18 15.164 33.8168 15.1611 32.4565 15.1439C32.1372 15.1439 32.0279 15.2359 32.0308 15.5609C32.0481 16.8062 32.0308 18.0515 32.0308 19.2996C32.0308 20.0675 31.6339 20.3149 30.9581 19.9784C30.3829 19.6908 29.8077 19.4032 29.2555 19.1156C29.1628 19.0592 29.0563 19.0294 28.9478 19.0294C28.8393 19.0294 28.7328 19.0592 28.6401 19.1156C28.0649 19.4204 27.4897 19.6908 26.9145 19.9784C26.1955 20.335 25.7641 20.0675 25.7641 19.2565C25.7641 18.0371 25.7641 16.8206 25.7641 15.6012C25.7641 15.256 25.6836 15.1238 25.3126 15.1295C23.9753 15.1525 22.6408 15.1496 21.3064 15.1295C20.9296 15.1295 20.8232 15.2359 20.8232 15.6127C20.8347 20.034 20.8347 24.4553 20.8232 28.8766C20.8232 29.3655 20.8232 29.3684 21.3006 29.2504C22.0656 29.0606 22.8191 28.7874 23.6187 28.7845C25.0835 28.7845 26.5483 28.7845 28.0131 28.7845C28.4463 28.7644 28.8721 28.9024 29.2112 29.1727C29.5503 29.443 29.7797 29.8274 29.8566 30.2542C29.9285 30.5676 30.0579 30.6625 30.38 30.6597C32.4124 30.6424 34.4476 30.6424 36.4857 30.6597C36.8653 30.6597 36.966 30.5418 36.9631 30.1736C36.9602 27.7492 36.966 25.3363 36.966 22.9118H36.9717ZM11.8387 20.1509C11.6978 20.3177 11.5972 20.4385 11.5023 20.5536C11.0536 21.1287 10.6136 21.7039 10.1534 22.2791C9.77668 22.7422 9.45457 22.7709 9.00305 22.3913C8.26105 21.7816 7.5296 21.1709 6.80869 20.5593C6.65051 20.427 6.53835 20.3494 6.35717 20.5363C5.35058 21.586 4.26059 22.5495 3.31441 23.6538C2.60839 24.4171 2.05315 25.307 1.67799 26.2767C1.62249 26.4017 1.59382 26.5369 1.59382 26.6736C1.59382 26.8103 1.62249 26.9455 1.67799 27.0705C2.54653 28.8401 3.40931 30.6098 4.26635 32.3795C4.29572 32.4591 4.3459 32.5294 4.41166 32.583C4.47741 32.6366 4.55634 32.6716 4.64022 32.6843C6.39455 32.8857 7.8958 32.3421 8.68382 30.5101C8.73099 30.413 8.75057 30.3047 8.74043 30.1972C8.73029 30.0897 8.6908 29.987 8.6263 29.9004C8.15176 29.1412 7.69161 28.3733 7.22858 27.5996C6.87484 27.0245 6.89209 26.6592 7.2861 26.4176C7.68011 26.1761 8.03672 26.3198 8.38759 26.9238C9.12096 28.1892 9.85145 29.4604 10.5963 30.7201C10.8684 31.2226 11.3142 31.609 11.8503 31.8069C12.3864 32.0048 12.9763 32.0008 13.5097 31.7957C15.3186 31.1946 17.1219 30.582 18.9337 29.9953C19.0781 29.9713 19.2072 29.8915 19.2933 29.7731C19.3793 29.6548 19.4155 29.5073 19.3939 29.3626C19.3766 26.6276 19.3939 23.8983 19.3939 21.1546C19.3939 19.9467 19.3939 19.9582 18.2176 19.7167C18.1703 19.699 18.1199 19.6915 18.0695 19.6948C18.0191 19.698 17.97 19.712 17.9255 19.7356C17.8809 19.7593 17.8418 19.7921 17.8109 19.832C17.7799 19.8718 17.7578 19.9178 17.7459 19.9669C17.5044 20.496 17.2542 21.0252 16.9867 21.5429C16.6991 22.1181 16.1239 22.1555 15.7385 21.6522C15.4509 21.2697 15.1633 20.8843 14.8901 20.5018C14.7118 20.2516 14.6025 20.289 14.5134 20.5593C14.3149 21.0942 14.0992 21.6234 13.8893 22.1526C13.8519 22.2738 13.7768 22.3799 13.6749 22.4555C13.573 22.531 13.4496 22.572 13.3227 22.5725C13.199 22.5849 13.0743 22.5594 12.9654 22.4993C12.8565 22.4392 12.7685 22.3474 12.713 22.236C12.6422 22.0986 12.5789 21.9574 12.5232 21.8132L11.8387 20.1509ZM27.9728 33.1502C28.6343 33.1502 29.2958 33.1502 29.9573 33.1502C30.3474 33.1539 30.7357 33.0957 31.1076 32.9777C31.2602 32.944 31.404 32.8788 31.5298 32.7861C31.6557 32.6935 31.7607 32.5756 31.8381 32.4399C32.0021 32.1063 31.9675 32.0401 31.5994 32.0373C30.0953 32.02 28.5912 32.0372 27.0871 31.9625C26.6211 31.9366 26.3939 31.7295 26.3939 31.3096C26.3939 30.8897 26.6269 30.674 27.0957 30.6654C27.5098 30.6654 27.9268 30.6654 28.341 30.6654C28.5883 30.6654 28.6027 30.5331 28.4819 30.3778C28.4029 30.2821 28.3014 30.2075 28.1864 30.1608C28.0714 30.1141 27.9466 30.0968 27.8233 30.1104C26.8627 30.1104 25.9022 30.1477 24.9473 30.1104C23.8058 30.0841 22.6681 30.2514 21.5825 30.605C19.0804 31.3441 16.6387 32.2501 14.1625 33.064C12.4916 33.6133 11.0737 33.2193 9.9176 31.9136C9.78243 31.7583 9.71341 31.7094 9.58399 31.9136C8.98466 32.8509 8.06456 33.5379 6.99563 33.8462C6.74542 33.921 6.7598 34.036 6.88059 34.2115C7.16938 34.6428 7.49666 35.0471 7.85842 35.4194C8.62054 36.193 9.48621 36.797 10.6078 36.8947C11.2958 36.9254 11.984 36.8408 12.644 36.6445C15.3417 35.9744 17.9358 34.988 20.5529 34.0734C21.8937 33.5525 23.3073 33.243 24.7431 33.156C25.8159 33.1272 26.8915 33.1502 27.9671 33.1502H27.9728ZM10.093 10.1714C8.97716 10.1714 7.86129 10.1714 6.7483 10.1714C6.61255 10.1563 6.47543 10.1826 6.35485 10.2467C6.23428 10.3109 6.13585 10.4099 6.07245 10.5309C5.56628 11.4828 6.02356 12.4491 7.07616 12.5987C7.25039 12.6151 7.41549 12.6842 7.54955 12.7967C7.68362 12.9092 7.7803 13.0598 7.82678 13.2285C7.94186 13.5696 8.07433 13.9046 8.22366 14.2322C9.23025 16.2885 11.3872 17.482 13.8375 16.6825C15.4222 16.1677 16.2102 14.9569 16.6502 13.4499C17.188 11.6208 17.1247 9.76297 16.8084 7.90511C16.8084 7.81883 16.8084 7.70091 16.6905 7.68078C16.5726 7.66065 16.5438 7.77569 16.4949 7.84759C16.2574 8.2194 15.989 8.57055 15.6925 8.89731C14.9333 9.69683 14.0647 10.2346 12.8942 10.1742C11.9624 10.134 11.0277 10.1714 10.093 10.1714ZM9.57824 1.69304C8.50263 1.92024 7.56507 2.2251 6.81444 2.93546C6.3693 3.33916 6.0785 3.88517 5.99192 4.47984C5.81649 5.74239 5.9229 7.01644 5.91427 8.28473C5.90839 8.35344 5.91629 8.42262 5.93751 8.48823C5.95873 8.55384 5.99285 8.61455 6.03786 8.66679C6.08287 8.71903 6.13786 8.76175 6.19961 8.79245C6.26135 8.82315 6.32861 8.8412 6.39743 8.84554C7.47016 8.99797 8.44223 8.84554 9.16698 7.93387C9.38555 7.64627 9.60124 7.38743 9.80544 7.10272C10.098 6.67419 10.4386 6.2805 10.8206 5.92933C11.8359 5.01477 12.9719 4.41082 14.3983 4.5086C14.939 4.54599 15.4854 4.5086 16.029 4.5086C16.262 4.5086 16.3166 4.43958 16.2763 4.22101C15.9887 2.78303 14.1424 1.39107 12.7073 1.54925C12.1206 1.58959 11.5571 1.79445 11.0815 2.14035C10.6059 2.48624 10.2374 2.95917 10.0183 3.50489C9.80972 4.03588 9.6827 4.59535 9.64151 5.16432C9.64295 5.25533 9.62493 5.34559 9.58864 5.42906C9.55234 5.51253 9.49862 5.58727 9.43108 5.64828C9.36353 5.70929 9.28373 5.75515 9.19701 5.78279C9.11029 5.81043 9.01866 5.81921 8.92827 5.80854C8.54289 5.78553 8.35308 5.5497 8.35308 5.08955C8.35041 4.67438 8.40164 4.26062 8.5055 3.85864C8.69539 3.06518 9.0621 2.32489 9.57824 1.69304ZM16.656 5.81429C15.8421 5.81429 15.1346 5.83442 14.43 5.81429C13.5672 5.79545 12.7271 6.09084 12.0659 6.64544C11.3613 7.17749 10.881 7.90511 10.3634 8.59534C10.3116 8.66436 10.2023 8.72188 10.2598 8.82254C10.3174 8.92319 10.4266 8.86855 10.5129 8.87143C11.2377 8.87143 11.9653 8.83116 12.6871 8.87143C13.5844 8.93182 14.2373 8.52344 14.7808 7.89073C15.3675 7.21775 15.8622 6.46713 16.656 5.81429ZM28.9392 15.1525C28.4215 15.1525 27.9038 15.1525 27.3862 15.1525C27.159 15.1525 27.0554 15.2244 27.0583 15.466C27.0583 16.3575 27.0583 17.252 27.0583 18.1464C27.0583 18.3995 27.1474 18.3966 27.3459 18.2988C27.7255 18.1032 28.1166 17.9278 28.4963 17.7236C28.6239 17.6468 28.7701 17.6062 28.919 17.6062C29.068 17.6062 29.2142 17.6468 29.3418 17.7236C29.7099 17.9163 30.0838 18.0975 30.449 18.2988C30.659 18.411 30.7683 18.4225 30.7625 18.1234C30.751 17.2548 30.751 16.3921 30.7625 15.535C30.7625 15.2474 30.6561 15.1726 30.3944 15.1813C29.8997 15.164 29.4195 15.1525 28.9392 15.1525ZM19.9662 5.82004C19.2931 5.86228 18.6414 6.07292 18.0709 6.43262C18.0081 6.46535 17.9595 6.52015 17.9345 6.58649C17.9096 6.65284 17.91 6.72606 17.9358 6.79211C18.0163 7.14298 18.0738 7.4996 18.1515 7.85334C18.2291 8.20708 18.1227 8.60684 18.37 8.80528C18.6174 9.00372 19.02 8.80528 19.3507 8.7909C20.0661 8.77808 20.7636 8.56486 21.3639 8.17545C21.517 8.09612 21.6398 7.96877 21.7136 7.81293C21.7874 7.65708 21.808 7.48135 21.7723 7.31266C21.5882 6.52752 20.6593 5.80854 19.9662 5.82004ZM11.022 19.0494C11.022 18.9171 10.9242 18.8798 10.8494 18.8309C10.116 18.3448 9.37692 17.8674 8.64643 17.3728C8.6155 17.3448 8.57887 17.324 8.53908 17.3116C8.4993 17.2993 8.4573 17.2957 8.416 17.3012C8.3747 17.3066 8.33508 17.321 8.29989 17.3433C8.26469 17.3656 8.23476 17.3953 8.21216 17.4303C7.81911 17.8425 7.41648 18.2461 7.00426 18.641C6.84033 18.7964 6.84608 18.897 7.02151 19.0379C7.76926 19.64 8.51126 20.2477 9.2475 20.8613C9.42006 21.008 9.5351 20.985 9.65589 20.8153C10.0643 20.2803 10.4899 19.754 10.9041 19.2249C10.9465 19.1696 10.9859 19.112 11.022 19.0523V19.0494ZM16.2878 19.9985C16.3511 19.9985 16.3827 19.9611 16.4058 19.918C16.5467 19.6304 16.6933 19.3658 16.8256 19.0897C16.8438 19.0476 16.8468 19.0006 16.8342 18.9566C16.8217 18.9126 16.7942 18.8742 16.7566 18.8481C16.469 18.5605 16.1555 18.2413 15.8507 17.9422C15.7932 17.8875 15.6954 17.7639 15.635 17.8847C15.5027 18.1723 15.264 18.4886 15.3848 18.7475C15.6266 19.1744 15.9077 19.5778 16.2246 19.9525C16.2431 19.9718 16.2644 19.9883 16.2878 20.0014V19.9985ZM13.3601 20.1193C13.6103 19.4434 13.826 18.8654 14.0388 18.2873C14.1107 18.0946 14.059 17.9997 13.8433 18.0659C13.3762 18.1811 12.8998 18.2542 12.4197 18.2844C12.8942 18.805 12.9776 19.478 13.3601 20.1222V20.1193Z" fill="black"/>
        <path d="M24.5418 27.6025C24.1421 27.6025 23.7394 27.6025 23.3368 27.6025C22.8766 27.6025 22.6466 27.3667 22.6494 26.9439C22.6427 26.8561 22.6557 26.7679 22.6873 26.6857C22.719 26.6035 22.7686 26.5294 22.8325 26.4688C22.8964 26.4082 22.973 26.3626 23.0568 26.3354C23.1405 26.3081 23.2293 26.2999 23.3167 26.3112C24.1334 26.3112 24.9502 26.3112 25.767 26.3112C25.8547 26.2992 25.9439 26.3071 26.0282 26.3344C26.1124 26.3616 26.1894 26.4074 26.2535 26.4685C26.3176 26.5295 26.3671 26.6042 26.3984 26.687C26.4297 26.7698 26.4419 26.8586 26.4342 26.9468C26.4342 27.3696 26.2099 27.5881 25.7468 27.6054H24.5418V27.6025Z" fill="black"/>
        <path d="M23.9234 24.4389C24.1449 24.4389 24.3663 24.4389 24.5849 24.4389C24.6704 24.4337 24.7559 24.4477 24.8353 24.4797C24.9147 24.5118 24.986 24.5612 25.0438 24.6243C25.1017 24.6874 25.1448 24.7626 25.1699 24.8445C25.1949 24.9264 25.2014 25.0128 25.1889 25.0975C25.1981 25.1799 25.1893 25.2633 25.1633 25.342C25.1372 25.4208 25.0944 25.4929 25.0379 25.5535C24.9814 25.6142 24.9124 25.6619 24.8357 25.6934C24.759 25.7249 24.6764 25.7394 24.5935 25.736C24.142 25.736 23.6876 25.736 23.2476 25.736C23.088 25.7209 22.9397 25.6467 22.8319 25.5281C22.724 25.4095 22.6642 25.255 22.6642 25.0946C22.6642 24.9343 22.724 24.7798 22.8319 24.6612C22.9397 24.5426 23.088 24.4684 23.2476 24.4533C23.4805 24.4361 23.7135 24.4533 23.9465 24.4533L23.9234 24.4389Z" fill="black"/>
    </g>
    <defs>
        <clipPath id="clip0_20049_5706">
            <rect width="38" height="38.046" fill="white" transform="translate(0.23999 0.140015)"/>
        </clipPath>
    </defs>
</svg>
